<mxfile host="Electron" modified="2024-03-22T17:02:41.700Z" agent="Mozilla/5.0 (Windows NT 10.0; Win64; x64) AppleWebKit/537.36 (KHTML, like Gecko) draw.io/23.1.5 Chrome/120.0.6099.109 Electron/28.1.0 Safari/537.36" etag="x-_NPJYhmfogIK77dyD6" version="23.1.5" type="device">
  <diagram name="Page-1" id="mZHp0F3idqMipVGt2Qi0">
    <mxGraphModel dx="1730" dy="572" grid="1" gridSize="10" guides="1" tooltips="1" connect="1" arrows="1" fold="1" page="1" pageScale="1" pageWidth="850" pageHeight="1100" math="0" shadow="0">
      <root>
        <mxCell id="0" />
        <mxCell id="1" parent="0" />
        <mxCell id="JLWCUQV6kGqJ00sNZZGw-9" style="edgeStyle=orthogonalEdgeStyle;rounded=0;orthogonalLoop=1;jettySize=auto;html=1;exitX=1;exitY=0.5;exitDx=0;exitDy=0;" parent="1" source="JLWCUQV6kGqJ00sNZZGw-1" target="JLWCUQV6kGqJ00sNZZGw-3" edge="1">
          <mxGeometry relative="1" as="geometry" />
        </mxCell>
        <mxCell id="JLWCUQV6kGqJ00sNZZGw-1" value="Pengguna" style="rounded=0;whiteSpace=wrap;html=1;" parent="1" vertex="1">
          <mxGeometry x="-20" y="160" width="140" height="40" as="geometry" />
        </mxCell>
        <mxCell id="JLWCUQV6kGqJ00sNZZGw-11" style="edgeStyle=orthogonalEdgeStyle;rounded=0;orthogonalLoop=1;jettySize=auto;html=1;exitX=1;exitY=0.5;exitDx=0;exitDy=0;entryX=0;entryY=0.5;entryDx=0;entryDy=0;" parent="1" source="JLWCUQV6kGqJ00sNZZGw-3" target="JLWCUQV6kGqJ00sNZZGw-10" edge="1">
          <mxGeometry relative="1" as="geometry" />
        </mxCell>
        <mxCell id="JLWCUQV6kGqJ00sNZZGw-3" value="1. &lt;i&gt;Assign &lt;/i&gt;kalimat ke dalam &lt;i&gt;array of &lt;br&gt;strings&lt;/i&gt;" style="ellipse;whiteSpace=wrap;html=1;aspect=fixed;" parent="1" vertex="1">
          <mxGeometry x="280" y="120" width="120" height="120" as="geometry" />
        </mxCell>
        <mxCell id="JLWCUQV6kGqJ00sNZZGw-5" value="Kalimat sebanyak n-baris" style="text;html=1;align=center;verticalAlign=middle;whiteSpace=wrap;rounded=0;" parent="1" vertex="1">
          <mxGeometry x="120" y="156" width="160" height="30" as="geometry" />
        </mxCell>
        <mxCell id="UbbK8I7xsAyuoqpNCuKr-3" style="edgeStyle=orthogonalEdgeStyle;rounded=0;orthogonalLoop=1;jettySize=auto;html=1;exitX=0.5;exitY=1;exitDx=0;exitDy=0;entryX=0.5;entryY=0;entryDx=0;entryDy=0;" edge="1" parent="1" source="JLWCUQV6kGqJ00sNZZGw-10" target="JLWCUQV6kGqJ00sNZZGw-13">
          <mxGeometry relative="1" as="geometry" />
        </mxCell>
        <mxCell id="JLWCUQV6kGqJ00sNZZGw-10" value="2. Hitung banyak &lt;br&gt;kata tiap elemen &lt;i&gt;array of string&lt;/i&gt;" style="ellipse;whiteSpace=wrap;html=1;aspect=fixed;" parent="1" vertex="1">
          <mxGeometry x="520" y="120" width="120" height="120" as="geometry" />
        </mxCell>
        <mxCell id="JLWCUQV6kGqJ00sNZZGw-12" value="&lt;i&gt;array of strings&lt;/i&gt;" style="text;html=1;align=center;verticalAlign=middle;whiteSpace=wrap;rounded=0;" parent="1" vertex="1">
          <mxGeometry x="413" y="156" width="90" height="30" as="geometry" />
        </mxCell>
        <mxCell id="UbbK8I7xsAyuoqpNCuKr-4" style="edgeStyle=orthogonalEdgeStyle;rounded=0;orthogonalLoop=1;jettySize=auto;html=1;exitX=0;exitY=0.5;exitDx=0;exitDy=0;entryX=1;entryY=0.5;entryDx=0;entryDy=0;" edge="1" parent="1" source="JLWCUQV6kGqJ00sNZZGw-13" target="JLWCUQV6kGqJ00sNZZGw-16">
          <mxGeometry relative="1" as="geometry" />
        </mxCell>
        <mxCell id="JLWCUQV6kGqJ00sNZZGw-13" value="3. &lt;i&gt;Assign&lt;/i&gt;&amp;nbsp;nilai ke dalam &lt;i&gt;array &lt;br&gt;of integer&lt;/i&gt;" style="ellipse;whiteSpace=wrap;html=1;aspect=fixed;" parent="1" vertex="1">
          <mxGeometry x="520" y="302.5" width="120" height="120" as="geometry" />
        </mxCell>
        <mxCell id="JLWCUQV6kGqJ00sNZZGw-15" value="Banyak kata" style="text;html=1;align=center;verticalAlign=middle;whiteSpace=wrap;rounded=0;" parent="1" vertex="1">
          <mxGeometry x="580" y="260" width="80" height="30" as="geometry" />
        </mxCell>
        <mxCell id="JLWCUQV6kGqJ00sNZZGw-16" value="4. Validasi urutan &lt;i&gt;array of integers&lt;/i&gt;&amp;nbsp;mengecil" style="ellipse;whiteSpace=wrap;html=1;aspect=fixed;" parent="1" vertex="1">
          <mxGeometry x="275" y="300" width="125" height="125" as="geometry" />
        </mxCell>
        <mxCell id="JLWCUQV6kGqJ00sNZZGw-18" value="&lt;i&gt;array of integers&lt;/i&gt;" style="text;html=1;align=center;verticalAlign=middle;whiteSpace=wrap;rounded=0;" parent="1" vertex="1">
          <mxGeometry x="410" y="370" width="101" height="30" as="geometry" />
        </mxCell>
        <mxCell id="JLWCUQV6kGqJ00sNZZGw-19" style="edgeStyle=orthogonalEdgeStyle;rounded=0;orthogonalLoop=1;jettySize=auto;html=1;exitX=-0.012;exitY=0.472;exitDx=0;exitDy=0;exitPerimeter=0;" parent="1" source="JLWCUQV6kGqJ00sNZZGw-16" edge="1">
          <mxGeometry relative="1" as="geometry">
            <mxPoint x="668.18" y="359.22" as="sourcePoint" />
            <mxPoint x="110" y="200" as="targetPoint" />
            <Array as="points">
              <mxPoint x="111" y="359" />
            </Array>
          </mxGeometry>
        </mxCell>
        <mxCell id="JLWCUQV6kGqJ00sNZZGw-21" value="Validitas puisi" style="text;html=1;align=center;verticalAlign=middle;whiteSpace=wrap;rounded=0;" parent="1" vertex="1">
          <mxGeometry x="136.25" y="330" width="117.5" height="30" as="geometry" />
        </mxCell>
        <mxCell id="UbbK8I7xsAyuoqpNCuKr-1" style="edgeStyle=orthogonalEdgeStyle;rounded=0;orthogonalLoop=1;jettySize=auto;html=1;exitX=0.75;exitY=0;exitDx=0;exitDy=0;entryX=0.083;entryY=0.167;entryDx=0;entryDy=0;entryPerimeter=0;" edge="1" parent="1" source="JLWCUQV6kGqJ00sNZZGw-1" target="JLWCUQV6kGqJ00sNZZGw-3">
          <mxGeometry relative="1" as="geometry" />
        </mxCell>
        <mxCell id="UbbK8I7xsAyuoqpNCuKr-2" value="Banyak baris" style="text;html=1;align=center;verticalAlign=middle;whiteSpace=wrap;rounded=0;" vertex="1" parent="1">
          <mxGeometry x="110" y="120" width="170" height="20" as="geometry" />
        </mxCell>
      </root>
    </mxGraphModel>
  </diagram>
</mxfile>
